<?xml version="1.0" standalone="no"?>
<!DOCTYPE svg PUBLIC "-//W3C//DTD SVG 20010904//EN"
 "http://www.w3.org/TR/2001/REC-SVG-20010904/DTD/svg10.dtd">
<svg version="1.0" xmlns="http://www.w3.org/2000/svg"
 width="512.000000pt" height="512.000000pt" viewBox="0 0 512.000000 512.000000"
 preserveAspectRatio="xMidYMid meet">

<g transform="translate(0.000000,512.000000) scale(0.100000,-0.100000)"
fill="#000000" stroke="none">
<path d="M2433 4089 c-81 -14 -205 -63 -281 -112 -260 -168 -389 -479 -326
-785 92 -443 561 -707 987 -555 277 98 461 330 498 625 19 152 -21 337 -102
474 -44 75 -178 209 -251 253 -160 93 -348 129 -525 100z m271 -443 c72 -35
149 -119 172 -188 39 -114 14 -240 -67 -332 -125 -143 -345 -150 -478 -17
-177 177 -110 468 129 555 67 24 173 16 244 -18z"/>
<path d="M1550 2420 c-97 -12 -146 -27 -235 -73 -474 -246 -490 -945 -28
-1223 32 -19 94 -47 138 -62 l80 -27 464 -3 c530 -4 565 0 711 70 69 33 101
57 171 127 72 72 94 102 132 181 43 88 77 209 77 275 l0 25 -215 0 -215 0 0
-22 c0 -39 -45 -122 -85 -157 -71 -62 -62 -61 -542 -61 -495 0 -484 -1 -556
80 -53 57 -67 97 -67 180 0 108 46 184 144 238 25 14 68 18 230 22 l199 5 18
52 c34 101 82 176 169 264 47 47 95 92 108 100 20 12 -17 14 -305 16 -180 1
-357 -2 -393 -7z"/>
<path d="M2665 2421 c-316 -38 -559 -289 -594 -612 l-7 -69 211 0 212 0 16 60
c21 74 72 134 142 166 50 24 51 24 469 24 292 0 431 -4 458 -12 50 -15 123
-79 150 -131 65 -128 10 -294 -116 -353 -48 -22 -62 -24 -242 -24 l-191 0 -12
-42 c-36 -122 -141 -270 -255 -360 l-49 -39 384 3 c369 4 387 5 454 27 113 37
193 87 280 175 89 89 149 194 181 316 23 87 23 263 1 350 -53 200 -186 368
-361 454 -126 62 -154 65 -631 70 -236 3 -461 1 -500 -3z"/>
</g>
</svg>
